<?xml version="1.0" encoding="utf-8"?>
<!-- Generator: Adobe Illustrator 22.1.0, SVG Export Plug-In . SVG Version: 6.00 Build 0)  -->
<svg version="1.1" id="Layer_1" xmlns="http://www.w3.org/2000/svg" xmlns:xlink="http://www.w3.org/1999/xlink" x="0px" y="0px"
	 viewBox="0 0 512 512" style="enable-background:new 0 0 512 512;" xml:space="preserve">
<g>
	<path d="M204.5,211H181c-8.3,0-15,6.7-15,15v30c0,8.3,6.7,15,15,15h15v5.1c0,41.2-3.9,81.2-22.5,114.9h165
		c-18.6-33.7-22.5-73.6-22.5-114.9V271h15c8.3,0,15-6.7,15-15v-30c0-8.3-6.7-15-15-15h-23.5c27.6-17.2,46-47.6,46-82.5
		c0-53.8-43.7-97.5-97.5-97.5s-97.5,43.7-97.5,97.5C158.5,163.4,177,193.8,204.5,211z M391,421H121c-8.3,0-15,6.7-15,15v30
		c0,8.3,6.7,15,15,15h270c8.3,0,15-6.7,15-15v-30C406,427.7,399.3,421,391,421z"/>
</g>
</svg>
